<?xml version="1.0" encoding="utf-8"?>
<!-- Generator: Adobe Illustrator 15.0.2, SVG Export Plug-In . SVG Version: 6.00 Build 0)  -->
<!DOCTYPE svg PUBLIC "-//W3C//DTD SVG 1.1//EN" "http://www.w3.org/Graphics/SVG/1.1/DTD/svg11.dtd">
<svg version="1.1" id="Layer_1" xmlns="http://www.w3.org/2000/svg" xmlns:xlink="http://www.w3.org/1999/xlink" x="0px" y="0px"
	 width="1213px" height="1213px" viewBox="0 0 1213 1213" enable-background="new 0 0 1213 1213" xml:space="preserve">
<path display="none" fill-rule="evenodd" clip-rule="evenodd" fill="none" stroke="#000000" stroke-width="2" stroke-miterlimit="10" d="
	M1135,0c25.997,0,52.002,0,78,0c0,172.316,0,344.684,0,517c-8.333,1-16.667,2-25,3c-0.333,0.667-0.667,1.333-1,2
	c-0.667,0-1.333,0-2,0c-0.333,0.667-0.667,1.333-1,2c-0.667,0-1.333,0-2,0c0,0.333,0,0.667,0,1c-0.667,0-1.333,0-2,0
	c0,0.333,0,0.667,0,1c-0.667,0-1.333,0-2,0c0,0.333,0,0.667,0,1c-0.667,0-1.333,0-2,0c0,0.333,0,0.667,0,1
	c-4.24,2.277-11.111,3.583-14,7c-2.01-0.574-0.865,0.12-2-1c-2.235-1.486-3.237-4.053-5-6c-0.667-0.333-1.333-0.667-2-1c0-1,0-2,0-3
	c-0.333,0-0.667,0-1,0c0-0.667,0-1.333,0-2c-0.333,0-0.667,0-1,0c0-0.667,0-1.333,0-2c-0.667-0.333-1.333-0.667-2-1
	c0-0.667,0-1.333,0-2c-0.333,0-0.667,0-1,0c0-0.667,0-1.333,0-2c-0.333,0-0.667,0-1,0c-0.333-2.333-0.667-4.667-1-7
	c-0.333,0-0.667,0-1,0c0-0.667,0-1.333,0-2c-0.667-0.333-1.333-0.667-2-1c-0.667-2-1.333-4-2-6c-0.333,0-0.667,0-1,0
	c-1.162-1.515-1.386-1.758-2-4c-3.068-0.513-4.601-1.398-8,0c0,0.333,0,0.667,0,1c-0.667,0-1.333,0-2,0c0,0.333,0,0.667,0,1
	c-4.229,1.466-10.365-2.011-13-3c0-0.333,0-0.667,0-1c-4,1.333-8,2.667-12,4c-1.139-1.139-0.004-0.398-2-1
	c0.117-3.435,0.668-9.185-1-11c-1.224-4.063-0.639-1.276-3-3c-0.333-0.667-0.667-1.333-1-2c-1-0.333-2-0.667-3-1
	c0-0.667,0-1.333,0-2c2.682-3.145-1.247-6.339,0-11c0.333,0,0.667,0,1,0c0-3.666,0-7.333,0-11c0.333,0,0.667,0,1,0
	c0.855-1.543,0.855-2.418,1-5c-2.022-1.709-0.84-2.311-2-4c-1.753-2.553-3.852-1.664-5-6c-2-0.333-4-0.667-6-1c0-0.333,0-0.667,0-1
	c-2.951-0.77-6.332,1.505-8,2c-4.666,0-9.334,0-14,0c0,0.333,0,0.667,0,1c-2,0-4,0-6,0c0,0.333,0,0.667,0,1c-1,0-2,0-3,0
	c0,0.333,0,0.667,0,1c-1.333,0.333-2.667,0.667-4,1c0,0.333,0,0.667,0,1c-0.667,0-1.333,0-2,0c-0.333,0.667-0.667,1.333-1,2
	c-0.667,0-1.333,0-2,0c0,0.333,0,0.667,0,1c-0.667,0-1.333,0-2,0c0,0.333,0,0.667,0,1c-0.667,0-1.333,0-2,0c0,0.333,0,0.667,0,1
	c-0.667,0-1.333,0-2,0c0,0.333,0,0.667,0,1c-0.667,0-1.333,0-2,0c0,0.333,0,0.667,0,1c-2,0.333-4,0.667-6,1
	c-0.333-0.667-0.667-1.333-1-2c-0.667,0-1.333,0-2,0c0-0.333,0-0.667,0-1c-5.307-1.859-5.345,3.814-9-1c-0.333,0-0.667,0-1,0
	c0-1.667,0-3.333,0-5c-0.301-0.669-1.3-0.05-2-3c-1,0-2,0-3,0c0-0.333,0-0.667,0-1c-0.333,0-0.667,0-1,0c0-1,0-2,0-3
	c2.085-2.299,0.769-4.886,2-8c0.333,0,0.667,0,1,0c0-0.667,0-1.333,0-2c0.333,0,0.667,0,1,0c0-1,0-2,0-3
	c0.667-0.333,1.333-0.667,2-1c0-0.667,0-1.333,0-2c0.333,0,0.667,0,1,0c0-0.667,0-1.333,0-2c0.333,0,0.667,0,1,0
	c0-0.667,0-1.333,0-2c0.333,0,0.667,0,1,0c0-0.667,0-1.333,0-2c0.667-0.333,1.333-0.667,2-1c0.32-0.975-1.803-5.082-1-8
	c0.333,0,0.667,0,1,0c0-1.667,0-3.333,0-5c-1.333-0.333-2.667-0.667-4-1c-0.333-0.667-0.667-1.333-1-2c-1.333-0.333-2.667-0.667-4-1
	c0-0.333,0-0.667,0-1c-2-0.333-4-0.667-6-1c-0.333-0.667-0.667-1.333-1-2c-1.667,0.333-3.333,0.667-5,1c-5.333,0-10.667,0-16,0
	c0,0.333,0,0.667,0,1c-4.977,1.408-12.779-0.852-16,2c-1.139,1.139-0.398,0.003-1,2c-1,0-2,0-3,0c0-0.333,0-0.667,0-1
	c-4.333,0-8.667,0-13,0c0-0.333,0-0.667,0-1c-2.962-0.713-6.967-4.096-9-6c-0.333-0.667-0.667-1.333-1-2c-0.667,0-1.333,0-2,0
	c0-0.333,0-0.667,0-1c-1-0.667-2-1.333-3-2c-0.333-1.333-0.667-2.667-1-4c-4.072-0.715-7.855-3.253-10-6c-0.333,0-0.667,0-1,0
	c0-0.667,0-1.333,0-2c-1.333,0-2.667,0-4,0c-1.094-2.49-2.721-4.867-4-7c0-0.667,0-1.333,0-2c-1-0.333-2-0.667-3-1
	c-0.333-0.667-0.667-1.333-1-2c-0.667,0-1.333,0-2,0c-0.333-0.667-0.667-1.333-1-2c-0.667,0-1.333,0-2,0
	c-0.333-0.667-0.667-1.333-1-2c-4.027-2.668-8.974-4.485-15-5c-1.914,4.374-4.873,6.818-11,7c-0.333-4-0.667-8-1-12
	c0.333,0,0.667,0,1,0c0-0.667,0-1.333,0-2c0.333,0,0.667,0,1,0c1.054-2.791,1.964-15.771,0-18c-0.845-3.181-3.07-4.868-5-7
	c-0.667-0.333-1.333-0.667-2-1c0-0.667,0-1.333,0-2c-3.775-0.528-13.623-2.413-15-5c0-0.667,0-1.333,0-2
	c-1.333-0.333-2.667-0.667-4-1c-0.333-0.667-0.667-1.333-1-2c-1.333-0.333-2.667-0.667-4-1c0-0.333,0-0.667,0-1
	c-2.667-0.333-5.333-0.667-8-1c0-0.333,0-0.667,0-1c-0.667,0-1.333,0-2,0c0-0.333,0-0.667,0-1c-1.333,0.333-2.667,0.667-4,1
	c0,0.333,0,0.667,0,1c-1.955,0.791-10.913,1.976-14,1c-6.457-2.041-7.96-6.721-17-4c-1.667,0-3.333,0-5,0c0,0.333,0,0.667,0,1
	c-0.667,0-1.333,0-2,0c0,0.333,0,0.667,0,1c-6.441,2.269-9.884-2.584-12,5c-0.667,0-1.333,0-2,0c0,0.333,0,0.667,0,1
	c-0.667,0-1.333,0-2,0c0,0.333,0,0.667,0,1c-0.667,0-1.333,0-2,0c-0.333,0.667-0.667,1.333-1,2c-0.333,0-0.667,0-1,0
	c-2.25,3.265-2.079,8.439-2,14c-2,0.333-4,0.667-6,1c0,0.333,0,0.667,0,1c-4.333,0-8.667,0-13,0c0,0.333,0,0.667,0,1
	c-2.667,0-5.333,0-8,0c0-0.333,0-0.667,0-1c-1,0-2,0-3,0c0-0.333,0-0.667,0-1c-1.333-0.333-2.667-0.667-4-1c0-0.333,0-0.667,0-1
	c-3.333-0.333-6.667-0.667-10-1c-0.333-1.333-0.667-2.667-1-4c-0.333,0-0.667,0-1,0c-0.505-1.825,2.323-8.955,3-10
	c0.667-0.333,1.333-0.667,2-1c0.333-1.667,0.667-3.333,1-5c0.333,0,0.667,0,1,0c0-1,0-2,0-3c0.333,0,0.667,0,1,0
	c0-0.667,0-1.333,0-2c0.667-0.333,1.333-0.667,2-1c0-5.666,0-11.334,0-17c-1-0.667-2-1.333-3-2c-0.333-1-0.667-2-1-3
	c-0.667,0-1.333,0-2,0c-0.333-0.667-0.667-1.333-1-2c-0.667,0-1.333,0-2,0c0-0.333,0-0.667,0-1c-8.666-1.333-17.334-2.667-26-4
	c0-0.333,0-0.667,0-1c-1.667-0.333-3.333-0.667-5-1c-1-1.333-2-2.667-3-4c-2.333,0.333-4.667,0.667-7,1c0-0.333,0-0.667,0-1
	c-2-0.667-4-1.333-6-2c0-0.333,0-0.667,0-1c-2,0-4,0-6,0c0,0-0.066-0.632-2-1c-1.333-1.667-2.667-3.333-4-5c-0.333,0-0.667,0-1,0
	c0-1,0-2,0-3c-0.945-2.22-2.385-4.173-3-7c-2.667,0-5.333,0-8,0c0-0.333,0-0.667,0-1c-0.667,0-1.333,0-2,0c0-0.333,0-0.667,0-1
	c-1,0-2,0-3,0c0-0.333,0-0.667,0-1c-1.333-0.333-2.667-0.667-4-1c0-0.333,0-0.667,0-1c-1.391-0.2-4,3-4,3
	c-3.34,1.342-9.113-2.396-12-3c-1.667-3-3.333-6-5-9c-0.667-0.333-1.333-0.667-2-1c0-0.667,0-1.333,0-2
	c-0.667-0.333-1.333-0.667-2-1c0-0.667,0-1.333,0-2c-0.667-0.333-1.333-0.667-2-1c0-0.667,0-1.333,0-2c-1-0.667-2-1.333-3-2
	c0-0.667,0-1.333,0-2c-0.333,0-0.667,0-1,0c-0.667-1-1.333-2-2-3c-1.333-0.333-2.667-0.667-4-1c-0.333-0.667-0.667-1.333-1-2
	c-0.667,0-1.333,0-2,0c-0.333-0.667-0.667-1.333-1-2c-2.333-2-4.667-4-7-6c-0.333-1-0.667-2-1-3c-1,0-2,0-3,0
	c-0.333-0.667-0.667-1.333-1-2c-2.463-2.288-4.075-2.964-5-7c-2.627-0.613-3.24-1.606-5-3c0-0.333,0-0.667,0-1c-0.667,0-1.333,0-2,0
	c0-0.333,0-0.667,0-1c-0.667,0-1.333,0-2,0c0-0.333,0-0.667,0-1c-0.667,0-1.333,0-2,0c0-0.333,0-0.667,0-1c-0.667,0-1.333,0-2,0
	c-0.333-0.667-0.667-1.333-1-2c-1-0.333-2-0.667-3-1c0-3,0-6,0-9c0.333,0,0.667,0,1,0c0-1.667,0-3.333,0-5
	c6.186-3.712,3.933-7.07,15-7c1.956,1.971,16.07,6.147,22,4c0-0.333,0-0.667,0-1c1.333-0.333,2.667-0.667,4-1c0-0.333,0-0.667,0-1
	c3.333,0,6.667,0,10,0c0-0.333,0-0.667,0-1c1.333,0,2.667,0,4,0c0-0.333,0-0.667,0-1c6.333,0.333,12.667,0.667,19,1
	c1.333-1.667,2.667-3.333,4-5c0.333,0,0.667,0,1,0c0-1,0-2,0-3c0.333,0,0.667,0,1,0c0-0.667,0-1.333,0-2c0.333,0,0.667,0,1,0
	c0-0.667,0-1.333,0-2c0.333,0,0.667,0,1,0c-0.667-8.666-1.333-17.334-2-26c-0.333,0-0.667,0-1,0c0-0.667,0-1.333,0-2
	c-0.333,0-0.667,0-1,0c0.333-4,0.667-8,1-12c1-0.667,2-1.333,3-2c0.527-1.506-1.99-4.069-1-7c0.333,0,0.667,0,1,0
	c0.333-1.333,0.667-2.667,1-4c9.666,2,19.334,4,29,6c5,0.333,10,0.667,15,1c0,0.333,0,0.667,0,1c0.667,0,1.333,0,2,0
	c0.333,0.667,0.667,1.333,1,2c0.667,0,1.333,0,2,0c0.333,0.667,0.667,1.333,1,2c0.667,0,1.333,0,2,0c0,0.333,0,0.667,0,1
	c0.667,0,1.333,0,2,0c0,0.333,0,0.667,0,1c0.667,0,1.333,0,2,0c0,0.333,0,0.667,0,1c0.667,0,1.333,0,2,0c0,0.333,0,0.667,0,1
	c1.383,0.915,1.755,0.674,4,1c0-0.333,0-0.667,0-1c2-0.333,4-0.667,6-1c0-0.333,0-0.667,0-1c0.667,0,1.333,0,2,0
	c0-0.333,0-0.667,0-1c2-0.667,4-1.333,6-2c0-0.333,0-0.667,0-1c1.667,0,3.333,0,5,0c0-0.333,0-0.667,0-1
	c1.333-0.333,2.667-0.667,4-1c0-0.333,0-0.667,0-1c2-0.333,4-0.667,6-1c3.074-1.222,6.399-3.189,10-4c0.333-1,0.667-2,1-3
	c2.828,0.532,4.772,2.261,7,3c2.333,0,4.667,0,7,0c0.333,0.667,0.667,1.333,1,2c0.667,0,1.333,0,2,0c0.333,0.667,0.667,1.333,1,2
	c0.667,0,1.333,0,2,0c0,0.333,0,0.667,0,1c3.333,0.667,6.667,1.333,10,2c0,0.333,0,0.667,0,1c0.667,0,1.333,0,2,0
	c0,0.333,0,0.667,0,1c1,0,2,0,3,0c0,0.333,0,0.667,0,1c1.333,0.333,2.667,0.667,4,1c0,0.333,0,0.667,0,1c1,0,2,0,3,0
	c0,0.333,0,0.667,0,1c0.667,0,1.333,0,2,0c0.333,0.667,0.667,1.333,1,2c0.667,0,1.333,0,2,0c0,0.333,0,0.667,0,1
	c1,0.667,2,1.333,3,2c0,0.667,0,1.333,0,2c0.333,0,0.667,0,1,0c0,0.667,0,1.333,0,2c0.333,0,0.667,0,1,0c1.414,1.76,2.337,2.387,3,5
	c3.333,0,6.667,0,10,0c0,0.333,0,0.667,0,1c1,0,2,0,3,0c0,0.333,0,0.667,0,1c2,0,4,0,6,0c0,0.333,0,0.667,0,1c0.667,0,1.333,0,2,0
	c0,0.333,0,0.667,0,1c1,0.333,2,0.667,3,1c1.114,5.364,3.75,6.906,4,14c1.667,1.333,3.333,2.667,5,4c0,0.333,0,0.667,0,1
	c3.444,2.295,6.288,0.811,11,2c0,0.333,0,0.667,0,1c7.333-0.667,14.667-1.333,22-2c0,0.333,0,0.667,0,1c1,0,2,0,3,0
	c0,0.333,0,0.667,0,1c1,0,2,0,3,0c0,0.333,0,0.667,0,1c1,0,2,0,3,0c0,0.333,0,0.667,0,1c0.667,0,1.333,0,2,0c0,0.333,0,0.667,0,1
	c6.696,2.359,13.608-3.373,18-2c0,0.333,0,0.667,0,1c0.667,0,1.333,0,2,0c0,0.333,0,0.667,0,1c1,0,2,0,3,0c0,0.333,0,0.667,0,1
	c4,0,8,0,12,0c0-0.333,0-0.667,0-1c3.22-0.691,3.833,1.815,6,2c0.333-0.667,0.667-1.333,1-2c2,0,4,0,6,0c0-0.333,0-0.667,0-1
	c2,0.333,4,0.667,6,1c0-0.333,0-0.667,0-1c3-1,6-2,9-3c0.333-0.667,0.667-1.333,1-2c0.667,0,1.333,0,2,0
	c0.333-0.667,0.667-1.333,1-2c6.333-0.667,12.667-1.333,19-2c0-1.667,0-3.333,0-5c1-0.333,2-0.667,3-1c0-0.333,0-0.667,0-1
	c2.667,0,5.333,0,8,0c0-0.333,0-0.667,0-1c1.333,0,2.667,0,4,0c0.333-0.667,0.667-1.333,1-2c0.667,0,1.333,0,2,0
	c0.333-0.667,0.667-1.333,1-2c0.667,0,1.333,0,2,0c0-0.333,0-0.667,0-1c1.333,0,2.667,0,4,0c0,0.333,0,0.667,0,1
	c4.666,0,9.334,0,14,0c0-0.333,0-0.667,0-1c1.333-0.333,2.667-0.667,4-1c0.333-0.667,0.667-1.333,1-2c0.667,0,1.333,0,2,0
	c0-0.333,0-0.667,0-1c1.667,0,3.333,0,5,0c0-0.333,0-0.667,0-1c4.333-1,8.667-2,13-3c1.639,3.052,3.278,4.819,8,5
	c0-0.333,0-0.667,0-1c0.303-0.235,5.724-1.656,7-1c0.667,1.333,1.333,2.667,2,4c3.818,2.663,11.059-0.94,16,1
	c0.92,0.361-0.017,2.439,3,2c0-0.333,0-0.667,0-1c1,0,2,0,3,0c0-0.333,0-0.667,0-1c2.832-0.927,4.862,0.283,7-1c0-0.333,0-0.667,0-1
	c1-0.333,2-0.667,3-1c0.333-0.667,0.667-1.333,1-2c2-0.333,4-0.667,6-1c0.333-0.667,0.667-1.333,1-2c0.333,0,0.667,0,1,0
	c1-1.333,2-2.667,3-4c1.333,0.333,2.667,0.667,4,1c0,1.333,0,2.667,0,4c-0.333,0-0.667,0-1,0c0,1.333,0,2.667,0,4
	c0.333,0,0.667,0,1,0c0.732,2.999-0.817,6.834-2,8c0,0.333,0,0.667,0,1c-0.667,0-1.333,0-2,0c-0.333,0.667-0.667,1.333-1,2
	c-0.667,0-1.333,0-2,0c0,0.333,0,0.667,0,1c-0.667,0-1.333,0-2,0c-0.667,1-1.333,2-2,3c-0.667,0-1.333,0-2,0c0,0.333,0,0.667,0,1
	c-1.333,0.333-2.667,0.667-4,1c0,0.333,0,0.667,0,1c-0.667,0.333-1.333,0.667-2,1c0,0.667,0,1.333,0,2c-0.333,0-0.667,0-1,0
	c0.333,1,0.667,2,1,3c0.333,0,0.667,0,1,0c0,0.667,0,1.333,0,2c0.333,0,0.667,0,1,0c0,1.333,0,2.667,0,4c-0.333,0-0.667,0-1,0
	c0,1.667,0,3.333,0,5c0.333,0,0.667,0,1,0c0,2,0,4,0,6c0.667,0.333,1.333,0.667,2,1c1.795,2.612-1.071,1.859,3,3
	c0,0.333,0,0.667,0,1c1.333,0,2.667,0,4,0c1.898-3.079,4.901-3.005,6-7c3.333,0,6.667,0,10,0c0,0.333,0,0.667,0,1
	c1.667,1.333,3.333,2.667,5,4c0-2,0-4,0-6c-5.277-4.513-3.238-7.149-14-7c-1.66,1.994-2.518,0.886-4,2c0,0.333,0,0.667,0,1
	c-0.333,0-0.667,0-1,0c-1.951,2.257,1.08,1.835-3,3c-1.309-2.311-5.748-6.274-4-11c0.333,0,0.667,0,1,0c0-0.667,0-1.333,0-2
	c3-2,6-4,9-6c1,0,2,0,3,0c1-1.333,2-2.667,3-4c0.667-0.333,1.333-0.667,2-1c0-2,0-4,0-6c0.333,0,0.667,0,1,0c0-0.667,0-1.333,0-2
	c0.333,0,0.667,0,1,0c2.743-6.394,1.801-16.108,9-18c0-0.667,0-1.333,0-2c0.667,0,1.333,0,2,0c0.702-3.687,1.855-5.271,2-10
	c-4.632-3.128-2.076-8.486-4-14c-0.333,0-0.667,0-1,0c0-1,0-2,0-3c-0.333,0-0.667,0-1,0c0-2,0-4,0-6c-1.667-1.333-3.333-2.667-5-4
	c-0.784-1.907,1-3,1-3c0-4.666,0-9.334,0-14c-3.032-10.869-1.011-33.719-1-47c-1-0.333-2-0.667-3-1c0-0.333,0-0.667,0-1
	c-1,0-2,0-3,0c0-0.333,0-0.667,0-1c-1,0-2,0-3,0c0-0.333,0-0.667,0-1c-1,0-2,0-3,0c0-0.333,0-0.667,0-1c-1-0.333-2-0.667-3-1
	c0-0.333,0-0.667,0-1c-0.667-0.333-1.333-0.667-2-1c0-1,0-2,0-3c7.384-0.176,11.192,1.945,16,4c1,0,2,0,3,0
	c1.333,1.667,2.667,3.333,4,5c1.755,1.386,0.614-0.754,2,1c2.01-0.574,0.865,0.12,2-1c2.815-1.826,2.159-4.172,4-7
	c0.333,0,0.667,0,1,0C1134.157,2.492,1134.416,2.251,1135,0z"/>
<path fill-rule="evenodd" clip-rule="evenodd" fill="none" stroke="#000000" stroke-width="2" stroke-miterlimit="10" d="M786,313
	c1.816-5.453,27-8.846,27-7c10.885,3.627,15.4,3.9,27,1c0,0.136,14.915,7,17,7c3.675,7.352,19,4.907,19,12c5.675,4.257,4,7.217,4,14
	c-3.389,0,1.389,5-2,5c0,4.54-0.733,9.958,0.599,16.112c0.986,4.558,9.229,3.11,10.662-0.721c3.084-8.247,15.156,0.668,19.279,4.011
	c4.204,3.408,5.474,2.233,7.512,7.368c1.403,3.535,4.082,6.459,7.948,7.23c0,5.218,8.78,6.744,12,10.5
	c4.077,4.757,10.818,7.335,15,12.5c5.357-0.05,10.677,0.473,16,1c1.832-5.502,11.506-3.852,16.857-4.286
	c5.286-0.429,10.572-0.857,15.858-1.286c8.069-0.654,3.185,1.571,9.285,1.571c5.106,2.121,16.531,11.238,7,16c0,4.69-17.056,30-2,30
	c-0.333,1.667-0.667,3.333-1,5c2.411,0,4.35,4.6,8,5c0,0.097,22,1.973,22-4c4.286,0,7.031-5,12-5c0-0.412,24.59-4.891,28-4
	c0,0.178,6.788,3.104,8.5,5.5c4.368,6.116,0.5,4.598,0.5,11.5c0,7.785-0.197,15.688-2,22c5.81,0,9,6.689,9,11c0,6.06,4,7.155,4,9
	c2.76,0.808,5.744-1.812,7.873-3.064c4.341-2.554,6.406,1.756,10.127,3.064c5.888,2.07,19-8.343,19,3c4.373,0,4.397,19,10,19
	c1.885,9.431,10.534,13.841,16.5,21c7.372,8.846,22.402,6.263,29,15.5c11.737,16.432-13.5,5.623-13.5,13.5
	c-10.368,0.943-21.629,2.563-25,15c1.667-0.667,2.333-0.333,2,1c-1.712,0-4.934,1.335-4,4c1.358,0,3.516,6.374,5,8
	c4.718,2.361,2.302,6.933,1.435,11.44c-1,5.2-1.955,8.6-4.435,13.56c-3.891,7.782-8.967,0.082-5,10
	c-2.041,0-2.101,3.664-3.716,5.192c-3.395,3.214-4.062,2.808-9.284,2.808c-5.194,7.793-11.428,7.858-20,7
	c-11.697,14.624-25.989,2-40,2c0.333-4.333,0.667-8.667,1-13c-7.821,0-0.384,12.662-9.258,13.011
	c-7.76,0.306-10.831,6.989-15.742,6.989c-2.106,7.722-0.491,10.581-9,12c0-1.99-14.789-1.643-17.25-1.75
	c-2.546-0.111-22.75,2.27-22.75,1.75c-2.335,0.373-29-0.502-29,3c-11.52,0-19.694,6-30,6c0,0.758-7.401,5.8-9,7
	c0,4.225-5.186,8.138-9,11c0,4.909-3,3.314-3,8.5c0,5.45-0.554,1.711-2,7.5c-3.115,0-4.932,11-10,11c-1.505-4.512-2-1.36-2-6
	c-3.498,0-3.347,2.731-4,6c-4.126,1.521-8.353,2.757-12.485,4.265C888.37,732.872,876.997,737.069,876,746c1.667-0.333,2,0.667,1,3
	c-3.732,0-0.63-1.725-7-3c0,2.561-8.288,2.698-11,3c0-5.027-10.314-3.603-14-5c-2.816-6.529,1.888-10.433,0-16
	c-2.078,0-2.439-4.317-3-6c-6.009-1.503-4.876-5.009-8-10c-3.788-1.895-0.621-13-4-13c0-9.453-10.236-20.708-14-32
	c0,3.09-3.47,9.156-6,10c0-1.016-6.265-7-7-7c-3.604,6.793,0.791,8.063,2.393,14.658c1.286,5.293,1.183,11.676,4.497,16.263
	c1.281,1.773,2.277,2.526,4.11,3.079c0.626,3.759-0.482,5.674,0,8c3.592,0,6.891,24,7,24c0,1.966,0.926,14,2,14
	c1.669,8.354,7.971,4.878,14,2c0,6.413-8.854,16.95-15,19c-2.218,4.434-4.909,4.795-7.479,8.768
	C812.674,782.624,812.484,788,809,788c-2.818,4.82-6.362,6.469-5.5,12.5c0.739,5.174-0.563,3.408-4.604,5.574
	c-5.734,3.072-2.149,6.679-7.396,10.426c-6.556,4.683-22.241,0.5-30.5,0.5c-1.703,0-10-1.218-10,1c-3.157,1.052-6.478,4-9,4
	c0,5.915-18.974-1-20-1c0,1.57-1.615,1.202-1,3c2.122,0,3.513,5.424,8.216,5.377c5.797-0.057,10.397,0.26,16.092-0.545
	c10.525-1.487,24.919,0.09,36.692,2.167c1.415,8.299-4,9.983-4,17.333c0,8.852-0.632,17.159-1.817,25.92
	c-0.507,3.105-0.604,6.223-0.292,9.354c0.631,4.869,4.11,3.968,4.11,6.394c1.981,0,8,2.804,8,6c-12.277,2.379,4.029,11,8,11
	c0,3.129-8.313,3.668-10,3.5c-6.477-0.647-7.582,2.35-15,2.5c0-6.825-21-4.599-21,5c-5.597,2.801-3.367,27-6,27
	c0,3.191-2.422,20,4,20c0-1.684,5.132,4.623,6,6c2.819,0,6.073,2.977,10,3c0-0.672,4.578-2.526,6-3c0,17.756,22.115-4.999,30,2
	c-6.242,0.484-7.876,10-12,10c-1.237,1.853-6.987,7-9,7c0,3.45,1.216,8-3,8c-2.115,3.021-13.709,19.229-9.234,22.124
	c7.462,4.827,0.746,5.741-2.956,9.047c-4.333,3.869-9.786,3.931-7.81,11.829c-1.806-0.162-2.808-1.096-3.006-2.8
	c-0.471-5.577-2.8-1.809-4.994-6.2c-10.875-2.176-5.313-7.243-10-16c-5.051,0-3.348-11.171-3-15c-5.022-3.347-5.989-9.755-9-15
	c3.538,0,4.099-0.941,4.659-4.629c1.07-7.04-5.844-7.392-11.659-7.371c0-2.546-8.112,1.264-10,1.5c-3.592,0.449-11.595-3.75-16-6.5
	c0,5.845,1.98,3.476,6,8.5c3.097,3.871,5.139,3.26,6.906,8.261c1.876,5.312,3.817,4.239,9.094,4.239c0,2.334,5.323,5.563,7,7
	c0,4.805-1,6.79-1,12c4.695,3.522,5.732,7.932,7,13c2.483,0-0.521,7.238,3,9c0,4.543,6.799,15-2,15c0-1.055-16.4,6-18,6
	c0,6.802-23.514,11.421-18,20c-2.287,0-3,2.122-3,4c-1.097,1.144-2.291,2.173-3.582,3.09c-4.832,5.409,3.348,2.049,1.582,6.91
	c-6.262,0-10,13.29-10,18c-5.426,0-0.371,26-8,26c1.184,5.914,1.749,7.264,1,14c-1.384,0,9,7.947,9,8
	c-4.362,0.578-3.68,8.369-8.328,6.705c-2.145-0.768-3.039-1.446-3.672-3.705c-2.281,0.326-14,0.908-14,3
	c-5.487,1.373-15.281,6.189-17,13c-4.145,0-4,0.618-4,5c-4.969,0-6.821-4.288-8-9c-3.272-1.637-7.892-7.27-11-11
	c-2.866-0.573-18.309-5.229-10-8c1.922-2.883,3.036-9,5-9c2.217-3.536,4.704-3.155,5-8c-8.645-5.032,2-14.845,2-21
	c-3.894,0.867-5.925,1.726-10,1c-0.505-2.804,0.312-8.351-2.328-9.295c-2.7-0.967-5.381,1.416-3.734,4.458
	c0.815,1.506-13.575,21.837-3.938,21.837c1.887,5.381-2.7,9.767-5,14c0.382,2.775-0.618,4.442-3,5c-1.754,3.631,1.257,6.46,0,10
	c-1.092,0-2.507,3.522-3,5c-5.545,0.071-8.419-1.985-13.171-4.064c-5.727-2.505-2.084-5.39-9.162-6.582
	c-3.384-0.569-6.862-2.594-8.893-5.124c-2.671-3.329-5.491-5.805-7.774-9.23c-4.327-3.007-9.236-2.604-10-9
	c4.663-2.445,5.829-5.476,6-11c-2.401,0-6.279-20-11-20c0.749-6.739,1.116-11.526,7.783-13.574
	c2.659-0.816,2.289-13.984,2.217-16.426c-5.302,0-8.193,10.801-9,15c-4.618,0.905-8.256,1.857-13,1c-1.382-4.143-8.653-7.425-13-9
	c-7.242-0.725-12.828-4-18-4c-1.563-3.397-3.872-6.578-4.28-10.413c-0.337-3.165,3.111-6.235,3.28-10.587
	c-4.565,0-3.853,4.083-7.5,7c-2.429,1.944-18.5,5.935-18.5,2c-9.198,1.534-26.034,4.211-28,16c-1.548,0-9.284-1.44-11-2
	c0-4.547-17-7.651-17-9c-4.139-1.991-6.725-3.094-2-7c6.748-3.209,10.789,1.215,11-9c-2.5,0.066-16,2.762-16,3
	c-7.406,1.235-10.22-3-17.5-3c-15.632,0-6.522-27-15.5-27c1.701-5.104,0.409-10.678,0-16c6.02,0,3.928-6.288-2.916-5.375
	C358.879,999.053,345,999.331,345,995c-5.033,0-14-7.196-14-12c-5.329,0-0.92-16-4-16c0-1.838-5.884-36-1-36
	c0-7.438-1.1-39.383-17-35c0,2.153-5.304,2-7,2c-0.986-4.487-5.336-6.371-6-11c3.543,0,9.44-2.319,11-7c4.683-5.485,5,3.415,5-8
	c0-6.55-1.587-5.283-2-11c6.539-3.418,3.939-2.365,10.12,0.809c4.918,2.525,5.434-0.772,9.25-3.176
	c2.843-1.791,5.617-3.535,7.237-6.625c1.916-3.655,4.361-3.936,5.393-8.007c-7.63-2.544-16.492,3.64-20-2.5
	c-3.152-5.516-1.94-21.38-12-20.5c0,2.446-6.788-0.757-8-1c-2.51-4.687-3.657-9-9-9c-4.658,0-5-0.449-5,4
	c-6.135,1.176-8.668,1.658-10-5c2.25,0,6.772-9.837,7-13c-4.13,0-0.892-8-4-8c-3.566-7.308-5-8.839-5-17
	c2.215,0,4.701-7.945-1.042-8.762c-5.262-0.749-4.306,1.595-8.744,2.999c-4.815,1.522-5.389-2.258-10.214-3.236
	c-2.043-10.219,0.605-22.018-1-33c0-3.726,5.226-9.924,3-14c-1.401,0-12.989-12.769-13.667-14.667
	C240.385,690.277,235,683.51,235,673.5c0-5.468-2-9.612-2-14.5c-2.444,0,0.444-2-2-2c0-6.76,1.616-7.399-4.221-10.509
	C215.936,640.716,222,634.92,222,627.25c0-3.167,0-6.333,0-9.5c0-7.783-0.834-2.637-3.603-7.394
	C217.037,608.019,213.713,599,213,599c0-10.732-9.017-12.025-15-20c-5.447,0-6.553-8-12-8c-3.001-6.002-9.925-11.489-15-16
	c-2.894-8.683-8.412-6-17-6c-9.623-3.109-8-5.035-8-14c2.598-2.273,11-8.965,11-11c7.555-1.679,9.667-2.597,13.997-7.519
	C175.326,511.56,177,510.001,177,503c0-4,0-8,0-12c0-7.99,3.073-6.219,5.333-13c0.806-2.418,9.31-28,1.667-28
	c-2.772-8.319-8.105-12.419-10-20c-1.612,0-2.29-18-7-18c-2.039-5.87,4.648-7.796,2.704-14.471C168.454,393.238,158,394.252,158,397
	c-3.101,0-27,0.932-27-1c-8.688,0-10.755-1.924-20-1c-0.004-8.109-1.93-15.322-1.5-23.5c0.167-3.167,0.333-6.333,0.5-9.5
	c3.157,0,2.867-2.069,3-5c7.21,0,12.287-27,8-27c0.659-1.977,3.549-8,5-8c1.224-3.338-0.9-5.686-1.889-8.618
	c-0.847-2.511,3.436-6.023,4.389-8.882c2.639-7.918,7.014-4.5,13.5-4.5c14.015,0,19.519,2.13,31,5c5.515,8.274,13.459,1.975,21,7
	c3.14,3.925,12,7.054,12,12c11.843,9.869,27.709,11.435,43.495,9.486C272.387,330.658,283.878,308.079,299,298
	c0-3.687,3.933-6.32,7-10c6.503,2.906,11,0.489,11-7c2.966,0,4-9.491,4-11.5c0-6.458,0.848-6.719,7.078-7.899
	c5.668-1.073,6.61,7.895,7.922,11.399c3.171-1.888,3.902-3.761,8-4c0.98,4.788,5.743,14.129,0,17c0,2.579-3.307,3.958-1,7
	c3.947-3.949,9.441-20,12-20c-0.922-8.297-0.438-17,10-17c0-5.415,9.576-3.226,12-2c1.388-5.902,2.948-4.825,8.036-3.36
	c4.686,1.35,8.526-4.647,11.901-7.616c4.98-4.382,22.968,6.25,28.063,8.976c0-9.23-1.418-9.974-9-15c-2.237-4.471-10.11-6.022-15-7
	c-4.831-9.654-15.326,2.882-20.186,4.902C377.493,236.283,362,239.199,362,242c-3.565,1.188-10.692,4.785-12.738,7.838
	c-2.596,3.874-3.548,2.878-6.905,1.067C336.076,247.516,331,251.478,331,243c-13.199,0-8.331-27-14-27c0.667-3.333,1.333-6.667,2-10
	c4.099-1.171,7-0.271,7-5c-9.847-1.109-6.33-9.038-10.223-15.755c-1.385-2.391-1.072-5.244-4.724-5.925
	c-4.996-0.931-13.031-1.277-15.052-5.32c3.164-0.293,6.979-3.274,10-3c0,2.666,15,1.966,15,5c3.364,0,7.271,0.473,12,0
	c0.551-3.305,1.451-15,5-15c0-7.315,0.086-12.787,1.079-19.178c1.915-12.327-12.189-8.26-19.079-10.822c0-3.429,4-1.242,4-6
	c8.346,0,14.805,5.503,18.495-3.836c2.684-6.793,19.182-0.742,23.505-2.164c0-6.304,13.244-3.166,17-4c0-0.333,0-0.667,0-1
	c5.404-1.31,5.851,5.444,8-1c1.576-0.263,10-2.372,10-4c2.633-0.625,13,1.688,13-3c2.836-0.218,20-2.018,20,2
	c6.881,1.722,11.244,3.327,20,4c1.907-9.733,17.319-6.213,24-6c3.712-3.373,24,1.081,24-2c2.8-0.848,7.922-3,10-3
	c0-0.993,3.458-3,5-3c3.149-6.293,11.763-4,17-4c0-1.702,11.19,4.324,15,5c0-5.013,15.76-5,20-5c0-1.597,6.087-4.488,8.208-4.359
	C584.551,90.089,590.487,92,599,92c1.388-2.208,5.389-5.484,7.771-6.808c5.793-3.22,8.749-7.847,15.444-1.634
	C629.298,90.131,632.717,87.679,642,90c0,2.716,18.362-1.082,15,9c-1.135,0-4.072,16-4,16c-0.981,3.615,3.69,25,4,25
	c5.888,21.019-18.777,15.864-29,17c0,0.446-16.482,2.953-18.924,3.331c-8.606,1.331-16.449-3.388-25.076-3.331
	c0,1.221-3.792,2.99-5,4.5c-3.596,4.495-4,4.185-4,10.5c-6.795,7.37,3.142,13.286,5,17c3.729,0,8.165,3.219,11,7
	c3.798,1.899,8.067,12,13,12c0,3.442,8.683,10,12,10c5.071,4.226,7.412,11.706,12,14c0,2.333,4.616,9.67,6.801,11.21
	c2.386,1.682,6.72,3.507,9.573,3.942c3.567,0.544,3.676-3.479,6.625-3.153c0,2.369,10.447,6,12.5,6c7.346,0,7.119,14,14.5,14
	c0,2.12,15.9,4.443,19,4c2.519,3.359,18,8.116,18,8c5.344,0,9.895,1.445,16,2c0,0.993,3.458,3,5,3c0,2.267,2,7.266,2,11.333
	c0,4.676-1.986,10.229-4,14.667c-5.679,0-7.959,16.921-2,21c2.797,2.786,20,3.037,20,7c7.896-1.579,15.953-2.659,24-4
	C778.5,323.495,775.354,315.347,786,313C786.333,312,783,313.661,786,313z"/>
<path display="none" fill-rule="evenodd" clip-rule="evenodd" fill="none" stroke="#000000" stroke-width="2" stroke-miterlimit="10" d="
	M28,111c1,0,2,0,3,0c0,0.333,0,0.667,0,1c0.333,0,0.667,0,1,0c-0.333,1.667-0.667,3.333-1,5c0.667,0.333,1.333,0.667,2,1
	c1.01,1.872,0.961,4.143,1,7c0.667,0,1.333,0,2,0c0,4.333,0,8.667,0,13c-0.045,0.218-1.271,0.356-1,2c0.333,0,0.667,0,1,0
	c0,2.333,0,4.667,0,7c0,0,2.422,1.985,3,3c-3.271,0.218-9.339,3.237-10,3c0-0.333,0-0.667,0-1c-0.333,0-0.667,0-1,0
	c0-1.333,0-2.667,0-4c-0.333,0-0.667,0-1,0c-2.12-5.556-1.616-9.047-1-15c1.333-0.333,2.667-0.667,4-1c-0.333-2-0.667-4-1-6
	c-0.667-0.333-1.333-0.667-2-1C25.208,120.892,27.712,114.134,28,111z"/>
<path display="none" fill-rule="evenodd" clip-rule="evenodd" fill="none" stroke="#000000" stroke-width="2" stroke-miterlimit="10" d="
	M168,399c-0.418,3.126-0.734,3.063-2,5c-0.333,0-0.667,0-1,0c-1.984,4.322,1.958,12.843,3,15c0.333,0,0.667,0,1,0c0,1,0,2,0,3
	c0.333,0,0.667,0,1,0c0,1,0,2,0,3c0.333,0,0.667,0,1,0c0,2,0,4,0,6c0.333,0,0.667,0,1,0c0.333,1.333,0.667,2.667,1,4
	c0.333,0,0.667,0,1,0c0,0.667,0,1.333,0,2c0.667,0.333,1.333,0.667,2,1c0,0.667,0,1.333,0,2c0.667,0.333,1.333,0.667,2,1
	c0.333,1.333,0.667,2.667,1,4c0.333,0,0.667,0,1,0c0.667,2,1.333,4,2,6c0.333,0,0.667,0,1,0c0,1,0,2,0,3c0.333,0,0.667,0,1,0
	c0,1.667,0,3.333,0,5c0.333,0,0.667,0,1,0c0.555,2.286-0.356,3.854-1,5c-0.333,0-0.667,0-1,0c-0.667,4.333-1.333,8.667-2,13
	c-0.333,0-0.667,0-1,0c-0.333,1.333-0.667,2.667-1,4c-1.333,1-2.667,2-4,3c0,7.666,0,15.334,0,23c-0.333,0-0.667,0-1,0
	c-2.022,4.541-1.366,4.916-5,8c0,0.333,0,0.667,0,1c-0.667,0-1.333,0-2,0c-0.333,0.667-0.667,1.333-1,2c-0.667,0-1.333,0-2,0
	c0,0.333,0,0.667,0,1c-3,0.667-6,1.333-9,2c-0.333,1-0.667,2-1,3c-3,2.667-6,5.333-9,8c0,0.667,0,1.333,0,2c-0.333,0-0.667,0-1,0
	c-1.145,2.008-0.198,2.424-2,4c0.702,3.688,1.855,5.271,2,10c1.189,0.613,1.501,1.694,2,2c0.667,0,1.333,0,2,0c0,0.333,0,0.667,0,1
	c2,0.333,4,0.667,6,1c0,0.333,0,0.667,0,1c1.333,0,2.667,0,4,0c0,0.333,0,0.667,0,1c4.518,1.325,7.121-2.411,10,0
	c0.333,0,0.667,0,1,0c0,1,0,2,0,3c3.666,3.333,7.334,6.667,11,10c0.667,1,1.333,2,2,3c0.333,0,0.667,0,1,0c0,0.667,0,1.333,0,2
	c0.333,0,0.667,0,1,0c0.667,1,1.333,2,2,3c0.667,0,1.333,0,2,0c1,1.333,2,2.667,3,4c0.667,0,1.333,0,2,0c1,1.333,2,2.667,3,4
	c0.667,0,1.333,0,2,0c1,1.333,2,2.667,3,4c3,1.667,6,3.333,9,5c0.126,4.639,0.613,7.224,2,11c0.333,0,0.667,0,1,0
	c0,1.667,0,3.333,0,5c0.667,0.333,1.333,0.667,2,1c0,0.667,0,1.333,0,2c0.333,0,0.667,0,1,0c0,0.667,0,1.333,0,2
	c1.333,1,2.667,2,4,3c0,5.333,0,10.667,0,16c-0.333,0-0.667,0-1,0c0,0.667,0,1.333,0,2c-0.333,0-0.667,0-1,0
	c-0.073,0.715,1.815,3.604,1,6c-0.333,0-0.667,0-1,0c-0.333,1.333-0.667,2.667-1,4c4.218,2.28,6.592,5.8,12,7
	c-0.041,5.451,0.517,7.972,2,12c0.333,0,0.667,0,1,0c0.333,5.666,0.667,11.334,1,17c0.333,0,0.667,0,1,0c0,0.667,0,1.333,0,2
	c0.333,0,0.667,0,1,0c0,1,0,2,0,3c0.333,0,0.667,0,1,0c0,2.333,0,4.667,0,7c1.333,1,2.667,2,4,3c0,0.667,0,1.333,0,2
	c0.333,0,0.667,0,1,0c0,1,0,2,0,3c0.333,0,0.667,0,1,0c0,0.667,0,1.333,0,2c0.333,0,0.667,0,1,0c0,1,0,2,0,3c0.333,0,0.667,0,1,0
	c0,1,0,2,0,3c0.333,0,0.667,0,1,0c0.333,0.667,0.667,1.333,1,2c0.667,0,1.333,0,2,0c0,0.333,0,0.667,0,1
	c2.214,1.213,5.726,0.851,7,3c0,0.667,0,1.333,0,2c0.333,0,0.667,0,1,0c0.722,1.355-0.688,6.447-1,7c-0.667,0.333-1.333,0.667-2,1
	c0,1.333,0,2.667,0,4c-0.092,0.349-1.376,0.241-1,2c0.333,0,0.667,0,1,0c0,0.667,0,1.333,0,2c0.333,0,0.667,0,1,0
	c-0.333,5.333-0.667,10.667-1,16c-0.382,0.959-2.377-0.053-2,3c0.333,0,0.667,0,1,0c0,2.333,0,4.667,0,7
	c0.715,2.223,2.419,4.197,3,7c3.303,1.87,5.772,4.911,10,6c0-0.333,0-0.667,0-1c1.667-0.333,3.333-0.667,5-1
	c0.333-0.667,0.667-1.333,1-2c1.667-0.333,3.333-0.667,5-1c-0.297,2.749-4.013,12.792-2,17c1.333,1,2.667,2,4,3
	c1.667,4.666,3.333,9.334,5,14c-0.333,0-0.667,0-1,0c-0.531,2.249-0.846,2.524-2,4c-0.333,0-0.667,0-1,0c0,0.667,0,1.333,0,2
	c-0.667,0.333-1.333,0.667-2,1c-1.171,1.786,0.044,2.29-2,4c1.333,2.667,2.667,5.333,4,8c0.667,0,1.333,0,2,0c0,0.333,0,0.667,0,1
	c1.667,0,3.333,0,5,0c1.917-2.293,3.002-1.275,4-5c2.333,0,4.667,0,7,0c0.736,4.218,2.929,8.002,7,9c0,0.333,0,0.667,0,1
	c2,0.333,4,0.667,6,1c0,0,0.302-1.296,2-1c0,0.333,0,0.667,0,1c0.667,0,1.333,0,2,0c0.496,1.324,0.426-0.292,1,1c0,1,0,2,0,3
	c0.667,0.333,1.333,0.667,2,1c0,0.667,0,1.333,0,2c0.333,0,0.667,0,1,0c0,2.333,0,4.667,0,7c0.333,0,0.667,0,1,0c0,1,0,2,0,3
	c1.333,1,2.667,2,4,3c0,0.333,0,0.667,0,1s0,0.667,0,1c0.333,0,0.667,0,1,0c0,0.333,0,0.667,0,1c1.333,0,2.667,0,4,0
	c1.613-1.84,5.141-2.495,8-3c-0.333,1.667-0.667,3.333-1,5c-4.465,2.542-7.889,7.296-14,8c-1.372-2.361-4.495-3.796-7-5
	c0,0.333,0,0.667,0,1c-4.201,0.998-6.022,4.655-6,10c-0.333,0-0.667,0-1,0c-0.853,2.623,2.567,3.054,3,4c0,2,0,4,0,6c-1,0-2,0-3,0
	c-1.411,4.983-7.413,6.196-12,8c-0.286,3.538-1.349,4.884-2,8c2.333,2,4.667,4,7,6c0.749,1.081,0.858,4.372,2,5c1.667,0,3.333,0,5,0
	c0.906-1.063,2.52-2.642,5-2c0,0.333,0,0.667,0,1c1,0,2,0,3,0c0.667,1,1.333,2,2,3c0.667,0,1.333,0,2,0c1.073,5.562,0.939,4.39-1,9
	c0,1,0,2,0,3c-1.667,1.333-3.333,2.667-5,4c-0.333,3.333-0.667,6.667-1,10c-0.333,0-0.667,0-1,0c0,1.333,0,2.667,0,4
	c-0.333,0-0.667,0-1,0c-0.421,3.015,1.678,2.123,2,3c0.693,1.887-2.322,15.26-3,16c-2.528,2.79-6.504,3.08-10,5c0,0.333,0,0.667,0,1
	c-0.667,0-1.333,0-2,0c-0.333,0.667-0.667,1.333-1,2c-0.667,0-1.333,0-2,0c0,0.333,0,0.667,0,1c-0.667,0-1.333,0-2,0
	c0,0.333,0,0.667,0,1c-1,0-2,0-3,0c0,0.333,0,0.667,0,1c-1,0-2,0-3,0c0,0.333,0,0.667,0,1c-0.667,0-1.333,0-2,0
	c-1,1.667-2,3.333-3,5c-0.667,0-1.333,0-2,0c0,0.333,0,0.667,0,1c-1.879,0.656-3-1-3-1c-3,1-6,2-9,3c-0.333,0-0.667,0-1,0
	c-0.333,2-0.667,4-1,6c1.801,0.944,1.574,1.385,4,2c5.966,6.378,22.462-0.942,25-5c0.333,0,0.667,0,1,0c0-1,0-2,0-3
	c7.009-1.514,12.059-3.425,20-2c0.333,1.667,0.667,3.333,1,5c0.667,0.333,1.333,0.667,2,1c0,0.333,0,0.667,0,1c-0.333,0-0.667,0-1,0
	c-0.45,2.735,0.434,4.486,1,6c-7.573,0.55-15.157,5.259-21,8c0,0.667,0,1.333,0,2c3.001,1.998,0.556,1.148,2,3
	c0.667,0.333,1.333,0.667,2,1c0,0.333,0,0.667,0,1c1.529,0.966,2.967-0.326,4,1c0,0.667,0,1.333,0,2c2.013,3.506,1.9,5.332,7,6
	c1.139-1.139,0.004-0.398,2-1c0.605-1.604,0.881-2.375,1-5c1.333-0.333,2.667-0.667,4-1c0,2,0,4,0,6c3.097,1.643,1.796,1.898,7,2
	c1.196-1.398,3.241-2.207,5-3c0.845,3.476,4.241,6.439,7,8c-0.844,1.135,0.127,0.146-1,1c-2.5,2.81-6.525,3.069-10,5
	c0,0.333,0,0.667,0,1c-0.667,0-1.333,0-2,0c-0.667,1-1.333,2-2,3c-2.333,1.667-4.667,3.333-7,5c0.573,2.01-0.12,0.865,1,2
	c0.333,1.333,0.667,2.667,1,4c0.333,0,0.667,0,1,0c1.818,2.169,3.939,2.981,5,6c-0.333,0-0.667,0-1,0c-1.818,2.714-6.458,2.158-11,2
	c-1.674,1.997-7.956,5.35-11,3c-2.414-1.863-0.895-9.336-2-13c-0.333,0-0.667,0-1,0c0-1.333,0-2.667,0-4
	c-1.667-1.333-3.333-2.667-5-4c-0.333-1.333-0.667-2.667-1-4c-1-0.333-2-0.667-3-1c-0.333-0.667-0.667-1.333-1-2
	c-0.667,0-1.333,0-2,0c-0.333-0.667-0.667-1.333-1-2c-0.667,0-1.333,0-2,0c0-0.333,0-0.667,0-1c-1.333-0.333-2.667-0.667-4-1
	c0-0.333,0-0.667,0-1c-1,0-2,0-3,0c0-0.333,0-0.667,0-1c-2-0.667-4-1.333-6-2c0-0.333,0-0.667,0-1c-0.667,0-1.333,0-2,0
	c0-0.333,0-0.667,0-1c-1.333-0.333-2.667-0.667-4-1c-0.333-0.667-0.667-1.333-1-2c-0.667,0-1.333,0-2,0c0-0.333,0-0.667,0-1
	c-1.333,0-2.667,0-4,0c0-0.333,0-0.667,0-1c-1.692-0.797-8.35-2.93-9-4c0-0.667,0-1.333,0-2c-3.666-0.333-7.334-0.667-11-1
	c0,0.333,0,0.667,0,1c-0.667,0-1.333,0-2,0c0,0.333,0,0.667,0,1c-3.061,1.022-5.925-0.628-8-1c-0.333-1-0.667-2-1-3
	c-5.666,1.333-11.334,2.667-17,4c0-0.333,0-0.667,0-1c-1,0-2,0-3,0c-0.333-0.667-0.667-1.333-1-2c-1.667-0.333-3.333-0.667-5-1
	c0-0.333,0-0.667,0-1c-0.667,0-1.333,0-2,0c0-0.333,0-0.667,0-1c-1,0-2,0-3,0c0-0.333,0-0.667,0-1c-2,0.333-4,0.667-6,1
	c-6.999,0-14.001,0-21,0c-1.5,2.256-5.628,4.619-8,6c-0.667,0-1.333,0-2,0c-2,2.667-4,5.333-6,8c-0.333,0-0.667,0-1,0
	c0,1.333,0,2.667,0,4c-1.385,2.301-3.595-0.081-5,5c-2.796,0.556-4.787,2.342-7,3c-4.333-0.667-8.667-1.333-13-2
	c0,0.333,0,0.667,0,1c-2.385,1.301-4.239,2.987-5,6c-7.958,1.735-11.441,4.547-20,1c-1,0-2,0-3,0c0-0.333,0-0.667,0-1
	c-1.139-1.139-0.398-0.003-1-2c-2.667-0.333-5.333-0.667-8-1c0,0.333,0,0.667,0,1c-0.667,0-1.333,0-2,0
	c-0.333,0.667-0.667,1.333-1,2c-3,0-6,0-9,0c0-0.333,0-0.667,0-1c-0.667,0-1.333,0-2,0c0-0.333,0-0.667,0-1c-0.667,0-1.333,0-2,0
	c0-0.333,0-0.667,0-1c-0.667,0-1.333,0-2,0c0-0.333,0-0.667,0-1c-0.667,0-1.333,0-2,0c0-0.333,0-0.667,0-1c-0.667,0-1.333,0-2,0
	c0-0.333,0-0.667,0-1c-0.667,0-1.333,0-2,0c0-0.333,0-0.667,0-1c-0.667,0-1.333,0-2,0c0-0.333,0-0.667,0-1
	c-6.625-2.411-16.975,3.79-18,7c0-0.667,0-1.333,0-2c-1.719-1.126-1.355-0.632-2-3c-2,0.333-4,0.667-6,1c0,0.333,0,0.667,0,1
	c-1.139,1.139-0.398,0.003-1,2c-4.878,0.166-11.656,0.279-14-2c0.667,0,1.333,0,2,0c0-0.333,0-0.667,0-1c1,0,2,0,3,0
	c0-0.333,0-0.667,0-1c1.333-0.333,2.667-0.667,4-1c0-0.333,0-0.667,0-1c1.333,0,2.667,0,4,0c1-1.333,2-2.667,3-4
	c0.333,0,0.667,0,1,0c0-1,0-2,0-3c-0.333,0-0.667,0-1,0c0-0.333,0-0.667,0-1c-3.666,1-7.334,2-11,3c0-3.667,0-7.333,0-11
	c-1,0-2,0-3,0c0.073-6.545-0.052-13.917-1-19c-0.333,0-0.667,0-1,0c0,0.333,0,0.667,0,1c-2.756,2.191-3.101,4.796-3,10
	c-0.782,1.047-0.114,6.233,0,10c1.162,0.581,1.577,1.753,2,2c1,0,2,0,3,0c0,0.333,0,0.667,0,1c-1.497,1.014-2.338,1.122-2,4
	c0.333,0,0.667,0,1,0c-0.333,1-0.667,2-1,3c-0.667,0-1.333,0-2,0c-1.667,2.333-3.333,4.667-5,7c-1.333,0-2.667,0-4,0
	c-1.388,0.873,0.006,2.708-1,4c-1.334,1.714-7.03,1.058-10,1c0-125.987,0-252.013,0-378c0.667,0.333,1.333,0.667,2,1
	c0-0.667,0-1.333,0-2c2.132-3.841,3.83-4.678,4-11c-0.667,0-1.333,0-2,0c0.38-3.541,1.241-3.036,2-6c4.465-0.373,2.915-0.628,7,0
	c0-0.667,0-1.333,0-2c1-0.667,2-1.333,3-2c0.333-1,0.667-2,1-3c0.667,0,1.333,0,2,0c0.333-0.667,0.667-1.333,1-2
	c1-0.333,2-0.667,3-1c1.33-1.846,0.217-4.495,1-7c1.714-5.482,1.976-11.162,2-19c2.333,0.333,4.667,0.667,7,1c0-0.333,0-0.667,0-1
	c1.333-0.333,2.667-0.667,4-1c0-1.667,0-3.333,0-5c2.937-1.708,2.863-2.891,8-3c1.166-1.361,1.824-1.528,4-2
	c0.727-4.705,2.534-8.906,7-10c1.24-1.211,10.786-4.767,14-4c0,0.333,0,0.667,0,1c1.333,0,2.667,0,4,0c0-0.333,0-0.667,0-1
	c1.333-0.333,2.667-0.667,4-1c0-0.333,0-0.667,0-1c1.792-1.421,2.383-2.284,5-3c0.333-1,0.667-2,1-3c0.333,0,0.667,0,1,0
	c0-0.667,0-1.333,0-2c0.333,0,0.667,0,1,0c1.35-1.481,0.49-1.373,3-2c1.746-2.049,4.051-2.062,8-2c0.939-11.182,2.836-24.811,3-37
	c0.667,0,1.333,0,2,0c0.333-5.333,0.667-10.667,1-16c0.333,0,0.667,0,1,0c0-4.333,0-8.667,0-13c0.333,0,0.667,0,1,0c0-5,0-10,0-15
	c-1.333-1-2.667-2-4-3c0.333-1,0.667-2,1-3c0.333,0,0.667,0,1,0c-0.333-9.999-0.667-20.001-1-30c-0.063-4.397-2.86-8.294-2-11
	c0.333,0,0.667,0,1,0c0.667-2.333,1.333-4.667,2-7c1.667-1.333,3.333-2.667,5-4c0-0.667,0-1.333,0-2c0.333,0,0.667,0,1,0
	c1.704-4.419-0.952-9.745,2-13c0,0.333,0,0.667,0,1c3.333-0.333,6.667-0.667,10-1c0,0.333,0,0.667,0,1c0.667,0,1.333,0,2,0
	c0,0.333,0,0.667,0,1c8.333,0.333,16.667,0.667,25,1c3.333,0,6.667,0,10,0c0-0.333,0-0.667,0-1c0.667,0,1.333,0,2,0
	c0-0.333,0-0.667,0-1C162.667,399,165.333,399,168,399z"/>
<path display="none" fill-rule="evenodd" clip-rule="evenodd" fill="none" stroke="#000000" stroke-width="2" stroke-miterlimit="10" d="
	M1213,520c0,39.33,0,78.67,0,118c-3-1-6-2-9-3c-1.667,0-3.333,0-5,0c0-0.333,0-0.667,0-1c-0.667,0-1.333,0-2,0
	c-0.333-0.667-0.667-1.333-1-2c-0.668-0.299-8.175-0.84-9-1c0-0.667,0-1.333,0-2c-3.835-0.769-12.48-5.096-14-4
	c-4.207,3.326-7.543,6.72-14,8c0-0.333,0-0.667,0-1c2.98-2.987,0.618-5.599,2-10c0.333,0,0.667,0,1,0c0.333-3,0.667-6,1-9
	c0.333,0,0.667,0,1,0c0-0.667,0-1.333,0-2c0.333,0,0.667,0,1,0c0-2.667,0-5.333,0-8c-0.333,0-0.667,0-1,0
	c-1.98-4.11-4.886-6.214-6-11c1-0.333,2-0.667,3-1c1.139-1.139,0.003-0.398,2-1c-0.698-2.834-1.783-2.888-3-5c0.667,0,1.333,0,2,0
	c0.333-1,0.667-2,1-3c1-0.333,2-0.667,3-1c0-0.333,0-0.667,0-1c1,0,2,0,3,0c0-0.333,0-0.667,0-1c0.667,0,1.333,0,2,0
	c0-0.333,0-0.667,0-1c2.333,0,4.667,0,7,0c0-0.333,0-0.667,0-1c1.333,0,2.667,0,4,0c0-0.333,0-0.667,0-1c1,0,2,0,3,0
	c0-0.333,0-0.667,0-1c1.333,0,2.667,0,4,0c0-0.333,0-0.667,0-1c1.333,0,2.667,0,4,0c3.823-1.344,6.925-2.763,8-7
	c-0.333,0-0.667,0-1,0c0-1.667,0-3.333,0-5c-0.333,0-0.667,0-1,0c0-0.667,0-1.333,0-2c-0.667-0.333-1.333-0.667-2-1
	c0-0.667,0-1.333,0-2c-1-0.667-2-1.333-3-2c-0.333-1-0.667-2-1-3c-0.667,0-1.333,0-2,0c-0.333-0.667-0.667-1.333-1-2
	c-1.667-0.333-3.333-0.667-5-1c0-0.333,0-0.667,0-1c-0.667,0-1.333,0-2,0c0-0.333,0-0.667,0-1c-2.667-0.333-5.333-0.667-8-1
	c-4.101-1.647-9.854-6.29-12-10c5.178-2.259,10.24-5.452,15-8c2-0.667,4-1.333,6-2c0.333-0.667,0.667-1.333,1-2c0.667,0,1.333,0,2,0
	c0.333-0.667,0.667-1.333,1-2c1,0,2,0,3,0c0-0.333,0-0.667,0-1C1198.333,520.667,1205.667,520.333,1213,520z"/>
</svg>
