<?xml version="1.0" encoding="utf-8"?>
<!-- Generator: Adobe Illustrator 15.0.2, SVG Export Plug-In . SVG Version: 6.00 Build 0)  -->
<!DOCTYPE svg PUBLIC "-//W3C//DTD SVG 1.1//EN" "http://www.w3.org/Graphics/SVG/1.1/DTD/svg11.dtd">
<svg version="1.1" id="Layer_1" xmlns="http://www.w3.org/2000/svg" xmlns:xlink="http://www.w3.org/1999/xlink" x="0px" y="0px"
	 width="586px" height="587px" viewBox="0 0 586 587" enable-background="new 0 0 586 587" xml:space="preserve">
<rect x="0.5" y="0.5" fill="none" stroke="#000000" stroke-miterlimit="10" width="45" height="45"/>
<rect x="45.5" y="0.5" fill="none" stroke="#000000" stroke-miterlimit="10" width="45" height="45"/>
<rect x="90.5" y="0.5" fill="none" stroke="#000000" stroke-miterlimit="10" width="45" height="45"/>
<rect x="135.5" y="0.5" fill="none" stroke="#000000" stroke-miterlimit="10" width="45" height="45"/>
<rect x="180.5" y="0.5" fill="none" stroke="#000000" stroke-miterlimit="10" width="45" height="45"/>
<rect x="225.5" y="0.5" fill="none" stroke="#000000" stroke-miterlimit="10" width="45" height="45"/>
<rect x="270.5" y="0.5" fill="none" stroke="#000000" stroke-miterlimit="10" width="45" height="45"/>
<rect x="315.5" y="0.5" fill="none" stroke="#000000" stroke-miterlimit="10" width="45" height="45"/>
<rect x="360.5" y="0.5" fill="none" stroke="#000000" stroke-miterlimit="10" width="45" height="45"/>
<rect x="405.5" y="0.5" fill="none" stroke="#000000" stroke-miterlimit="10" width="45" height="45"/>
<rect x="450.5" y="0.5" fill="none" stroke="#000000" stroke-miterlimit="10" width="45" height="45"/>
<rect x="495.5" y="0.5" fill="none" stroke="#000000" stroke-miterlimit="10" width="45" height="45"/>
<rect x="540.5" y="0.5" fill="none" stroke="#000000" stroke-miterlimit="10" width="45" height="45"/>
<rect x="0.5" y="45.5" fill="none" stroke="#000000" stroke-miterlimit="10" width="45" height="45"/>
<rect x="45.5" y="45.5" fill="none" stroke="#000000" stroke-miterlimit="10" width="45" height="45"/>
<rect x="90.5" y="45.5" fill="none" stroke="#000000" stroke-miterlimit="10" width="45" height="45"/>
<rect x="135.5" y="45.5" fill="none" stroke="#000000" stroke-miterlimit="10" width="45" height="45"/>
<rect x="180.5" y="45.5" fill="none" stroke="#000000" stroke-miterlimit="10" width="45" height="45"/>
<rect x="225.5" y="45.5" fill="none" stroke="#000000" stroke-miterlimit="10" width="45" height="45"/>
<rect x="270.5" y="45.5" fill="none" stroke="#000000" stroke-miterlimit="10" width="45" height="45"/>
<rect x="315.5" y="45.5" fill="none" stroke="#000000" stroke-miterlimit="10" width="45" height="45"/>
<rect x="360.5" y="45.5" fill="none" stroke="#000000" stroke-miterlimit="10" width="45" height="45"/>
<rect x="405.5" y="45.5" fill="none" stroke="#000000" stroke-miterlimit="10" width="45" height="45"/>
<rect x="450.5" y="45.5" fill="none" stroke="#000000" stroke-miterlimit="10" width="45" height="45"/>
<rect x="495.5" y="45.5" fill="none" stroke="#000000" stroke-miterlimit="10" width="45" height="45"/>
<rect x="540.5" y="45.5" fill="none" stroke="#000000" stroke-miterlimit="10" width="45" height="45"/>
<rect x="0.5" y="90.5" fill="none" stroke="#000000" stroke-miterlimit="10" width="45" height="45"/>
<rect x="45.5" y="90.5" fill="none" stroke="#000000" stroke-miterlimit="10" width="45" height="45"/>
<rect x="90.5" y="90.5" fill="none" stroke="#000000" stroke-miterlimit="10" width="45" height="45"/>
<rect x="135.5" y="90.5" fill="none" stroke="#000000" stroke-miterlimit="10" width="45" height="45"/>
<rect x="180.5" y="90.5" fill="none" stroke="#000000" stroke-miterlimit="10" width="45" height="45"/>
<rect x="225.5" y="90.5" fill="none" stroke="#000000" stroke-miterlimit="10" width="45" height="45"/>
<rect x="270.5" y="90.5" fill="none" stroke="#000000" stroke-miterlimit="10" width="45" height="45"/>
<rect x="315.5" y="90.5" fill="none" stroke="#000000" stroke-miterlimit="10" width="45" height="45"/>
<rect x="360.5" y="90.5" fill="none" stroke="#000000" stroke-miterlimit="10" width="45" height="45"/>
<rect x="405.5" y="90.5" fill="none" stroke="#000000" stroke-miterlimit="10" width="45" height="45"/>
<rect x="450.5" y="90.5" fill="none" stroke="#000000" stroke-miterlimit="10" width="45" height="45"/>
<rect x="495.5" y="90.5" fill="none" stroke="#000000" stroke-miterlimit="10" width="45" height="45"/>
<rect x="540.5" y="90.5" fill="none" stroke="#000000" stroke-miterlimit="10" width="45" height="45"/>
<rect x="0.5" y="135.5" fill="none" stroke="#000000" stroke-miterlimit="10" width="45" height="45"/>
<rect x="45.5" y="135.5" fill="none" stroke="#000000" stroke-miterlimit="10" width="45" height="45"/>
<rect x="90.5" y="135.5" fill="none" stroke="#000000" stroke-miterlimit="10" width="45" height="45"/>
<rect x="135.5" y="135.5" fill="none" stroke="#000000" stroke-miterlimit="10" width="45" height="45"/>
<rect x="180.5" y="135.5" fill="none" stroke="#000000" stroke-miterlimit="10" width="45" height="45"/>
<rect x="225.5" y="135.5" fill="none" stroke="#000000" stroke-miterlimit="10" width="45" height="45"/>
<rect x="270.5" y="135.5" fill="none" stroke="#000000" stroke-miterlimit="10" width="45" height="45"/>
<rect x="315.5" y="135.5" fill="none" stroke="#000000" stroke-miterlimit="10" width="45" height="45"/>
<rect x="360.5" y="135.5" fill="none" stroke="#000000" stroke-miterlimit="10" width="45" height="45"/>
<rect x="405.5" y="135.5" fill="none" stroke="#000000" stroke-miterlimit="10" width="45" height="45"/>
<rect x="450.5" y="135.5" fill="none" stroke="#000000" stroke-miterlimit="10" width="45" height="45"/>
<rect x="495.5" y="135.5" fill="none" stroke="#000000" stroke-miterlimit="10" width="45" height="45"/>
<rect x="540.5" y="135.5" fill="none" stroke="#000000" stroke-miterlimit="10" width="45" height="45"/>
<rect x="0.5" y="180.5" fill="none" stroke="#000000" stroke-miterlimit="10" width="45" height="45"/>
<rect x="45.5" y="180.5" fill="none" stroke="#000000" stroke-miterlimit="10" width="45" height="45"/>
<rect x="90.5" y="180.5" fill="none" stroke="#000000" stroke-miterlimit="10" width="45" height="45"/>
<rect x="135.5" y="180.5" fill="none" stroke="#000000" stroke-miterlimit="10" width="45" height="45"/>
<rect x="180.5" y="180.5" fill="none" stroke="#000000" stroke-miterlimit="10" width="45" height="45"/>
<rect x="225.5" y="180.5" fill="none" stroke="#000000" stroke-miterlimit="10" width="45" height="45"/>
<rect x="270.5" y="180.5" fill="none" stroke="#000000" stroke-miterlimit="10" width="45" height="45"/>
<rect x="315.5" y="180.5" fill="none" stroke="#000000" stroke-miterlimit="10" width="45" height="45"/>
<rect x="360.5" y="180.5" fill="none" stroke="#000000" stroke-miterlimit="10" width="45" height="45"/>
<rect x="405.5" y="180.5" fill="none" stroke="#000000" stroke-miterlimit="10" width="45" height="45"/>
<rect x="450.5" y="180.5" fill="none" stroke="#000000" stroke-miterlimit="10" width="45" height="45"/>
<rect x="495.5" y="180.5" fill="none" stroke="#000000" stroke-miterlimit="10" width="45" height="45"/>
<rect x="540.5" y="180.5" fill="none" stroke="#000000" stroke-miterlimit="10" width="45" height="45"/>
<rect x="0.5" y="225.5" fill="none" stroke="#000000" stroke-miterlimit="10" width="45" height="45"/>
<rect x="45.5" y="225.5" fill="none" stroke="#000000" stroke-miterlimit="10" width="45" height="45"/>
<rect x="90.5" y="225.5" fill="none" stroke="#000000" stroke-miterlimit="10" width="45" height="45"/>
<rect x="135.5" y="225.5" fill="none" stroke="#000000" stroke-miterlimit="10" width="45" height="45"/>
<rect x="180.5" y="225.5" fill="none" stroke="#000000" stroke-miterlimit="10" width="45" height="45"/>
<rect x="225.5" y="225.5" fill="none" stroke="#000000" stroke-miterlimit="10" width="45" height="45"/>
<rect x="270.5" y="225.5" fill="none" stroke="#000000" stroke-miterlimit="10" width="45" height="45"/>
<rect x="315.5" y="225.5" fill="none" stroke="#000000" stroke-miterlimit="10" width="45" height="45"/>
<rect x="360.5" y="225.5" fill="none" stroke="#000000" stroke-miterlimit="10" width="45" height="45"/>
<rect x="405.5" y="225.5" fill="none" stroke="#000000" stroke-miterlimit="10" width="45" height="45"/>
<rect x="450.5" y="225.5" fill="none" stroke="#000000" stroke-miterlimit="10" width="45" height="45"/>
<rect x="495.5" y="225.5" fill="none" stroke="#000000" stroke-miterlimit="10" width="45" height="45"/>
<rect x="540.5" y="225.5" fill="none" stroke="#000000" stroke-miterlimit="10" width="45" height="45"/>
<rect x="0.5" y="270.5" fill="none" stroke="#000000" stroke-miterlimit="10" width="45" height="46"/>
<rect x="45.5" y="270.5" fill="none" stroke="#000000" stroke-miterlimit="10" width="45" height="46"/>
<rect x="90.5" y="270.5" fill="none" stroke="#000000" stroke-miterlimit="10" width="45" height="46"/>
<rect x="135.5" y="270.5" fill="none" stroke="#000000" stroke-miterlimit="10" width="45" height="46"/>
<rect x="180.5" y="270.5" fill="none" stroke="#000000" stroke-miterlimit="10" width="45" height="46"/>
<rect x="225.5" y="270.5" fill="none" stroke="#000000" stroke-miterlimit="10" width="45" height="46"/>
<rect x="270.5" y="270.5" fill="none" stroke="#000000" stroke-miterlimit="10" width="45" height="46"/>
<rect x="315.5" y="270.5" fill="none" stroke="#000000" stroke-miterlimit="10" width="45" height="46"/>
<rect x="360.5" y="270.5" fill="none" stroke="#000000" stroke-miterlimit="10" width="45" height="46"/>
<rect x="405.5" y="270.5" fill="none" stroke="#000000" stroke-miterlimit="10" width="45" height="46"/>
<rect x="450.5" y="270.5" fill="none" stroke="#000000" stroke-miterlimit="10" width="45" height="46"/>
<rect x="495.5" y="270.5" fill="none" stroke="#000000" stroke-miterlimit="10" width="45" height="46"/>
<rect x="540.5" y="270.5" fill="none" stroke="#000000" stroke-miterlimit="10" width="45" height="46"/>
<rect x="0.5" y="316.5" fill="none" stroke="#000000" stroke-miterlimit="10" width="45" height="45"/>
<rect x="45.5" y="316.5" fill="none" stroke="#000000" stroke-miterlimit="10" width="45" height="45"/>
<rect x="90.5" y="316.5" fill="none" stroke="#000000" stroke-miterlimit="10" width="45" height="45"/>
<rect x="135.5" y="316.5" fill="none" stroke="#000000" stroke-miterlimit="10" width="45" height="45"/>
<rect x="180.5" y="316.5" fill="none" stroke="#000000" stroke-miterlimit="10" width="45" height="45"/>
<rect x="225.5" y="316.5" fill="none" stroke="#000000" stroke-miterlimit="10" width="45" height="45"/>
<rect x="270.5" y="316.5" fill="none" stroke="#000000" stroke-miterlimit="10" width="45" height="45"/>
<rect x="315.5" y="316.5" fill="none" stroke="#000000" stroke-miterlimit="10" width="45" height="45"/>
<rect x="360.5" y="316.5" fill="none" stroke="#000000" stroke-miterlimit="10" width="45" height="45"/>
<rect x="405.5" y="316.5" fill="none" stroke="#000000" stroke-miterlimit="10" width="45" height="45"/>
<rect x="450.5" y="316.5" fill="none" stroke="#000000" stroke-miterlimit="10" width="45" height="45"/>
<rect x="495.5" y="316.5" fill="none" stroke="#000000" stroke-miterlimit="10" width="45" height="45"/>
<rect x="540.5" y="316.5" fill="none" stroke="#000000" stroke-miterlimit="10" width="45" height="45"/>
<rect x="0.5" y="361.5" fill="none" stroke="#000000" stroke-miterlimit="10" width="45" height="45"/>
<rect x="45.5" y="361.5" fill="none" stroke="#000000" stroke-miterlimit="10" width="45" height="45"/>
<rect x="90.5" y="361.5" fill="none" stroke="#000000" stroke-miterlimit="10" width="45" height="45"/>
<rect x="135.5" y="361.5" fill="none" stroke="#000000" stroke-miterlimit="10" width="45" height="45"/>
<rect x="180.5" y="361.5" fill="none" stroke="#000000" stroke-miterlimit="10" width="45" height="45"/>
<rect x="225.5" y="361.5" fill="none" stroke="#000000" stroke-miterlimit="10" width="45" height="45"/>
<rect x="270.5" y="361.5" fill="none" stroke="#000000" stroke-miterlimit="10" width="45" height="45"/>
<rect x="315.5" y="361.5" fill="none" stroke="#000000" stroke-miterlimit="10" width="45" height="45"/>
<rect x="360.5" y="361.5" fill="none" stroke="#000000" stroke-miterlimit="10" width="45" height="45"/>
<rect x="405.5" y="361.5" fill="none" stroke="#000000" stroke-miterlimit="10" width="45" height="45"/>
<rect x="450.5" y="361.5" fill="none" stroke="#000000" stroke-miterlimit="10" width="45" height="45"/>
<rect x="495.5" y="361.5" fill="none" stroke="#000000" stroke-miterlimit="10" width="45" height="45"/>
<rect x="540.5" y="361.5" fill="none" stroke="#000000" stroke-miterlimit="10" width="45" height="45"/>
<rect x="0.5" y="406.5" fill="none" stroke="#000000" stroke-miterlimit="10" width="45" height="45"/>
<rect x="45.5" y="406.5" fill="none" stroke="#000000" stroke-miterlimit="10" width="45" height="45"/>
<rect x="90.5" y="406.5" fill="none" stroke="#000000" stroke-miterlimit="10" width="45" height="45"/>
<rect x="135.5" y="406.5" fill="none" stroke="#000000" stroke-miterlimit="10" width="45" height="45"/>
<rect x="180.5" y="406.5" fill="none" stroke="#000000" stroke-miterlimit="10" width="45" height="45"/>
<rect x="225.5" y="406.5" fill="none" stroke="#000000" stroke-miterlimit="10" width="45" height="45"/>
<rect x="270.5" y="406.5" fill="none" stroke="#000000" stroke-miterlimit="10" width="45" height="45"/>
<rect x="315.5" y="406.5" fill="none" stroke="#000000" stroke-miterlimit="10" width="45" height="45"/>
<rect x="360.5" y="406.5" fill="none" stroke="#000000" stroke-miterlimit="10" width="45" height="45"/>
<rect x="405.5" y="406.5" fill="none" stroke="#000000" stroke-miterlimit="10" width="45" height="45"/>
<rect x="450.5" y="406.5" fill="none" stroke="#000000" stroke-miterlimit="10" width="45" height="45"/>
<rect x="495.5" y="406.5" fill="none" stroke="#000000" stroke-miterlimit="10" width="45" height="45"/>
<rect x="540.5" y="406.5" fill="none" stroke="#000000" stroke-miterlimit="10" width="45" height="45"/>
<rect x="0.5" y="451.5" fill="none" stroke="#000000" stroke-miterlimit="10" width="45" height="45"/>
<rect x="45.5" y="451.5" fill="none" stroke="#000000" stroke-miterlimit="10" width="45" height="45"/>
<rect x="90.5" y="451.5" fill="none" stroke="#000000" stroke-miterlimit="10" width="45" height="45"/>
<rect x="135.5" y="451.5" fill="none" stroke="#000000" stroke-miterlimit="10" width="45" height="45"/>
<rect x="180.5" y="451.5" fill="none" stroke="#000000" stroke-miterlimit="10" width="45" height="45"/>
<rect x="225.5" y="451.5" fill="none" stroke="#000000" stroke-miterlimit="10" width="45" height="45"/>
<rect x="270.5" y="451.5" fill="none" stroke="#000000" stroke-miterlimit="10" width="45" height="45"/>
<rect x="315.5" y="451.5" fill="none" stroke="#000000" stroke-miterlimit="10" width="45" height="45"/>
<rect x="360.5" y="451.5" fill="none" stroke="#000000" stroke-miterlimit="10" width="45" height="45"/>
<rect x="405.5" y="451.5" fill="none" stroke="#000000" stroke-miterlimit="10" width="45" height="45"/>
<rect x="450.5" y="451.5" fill="none" stroke="#000000" stroke-miterlimit="10" width="45" height="45"/>
<rect x="495.5" y="451.5" fill="none" stroke="#000000" stroke-miterlimit="10" width="45" height="45"/>
<rect x="540.5" y="451.5" fill="none" stroke="#000000" stroke-miterlimit="10" width="45" height="45"/>
<rect x="0.5" y="496.5" fill="none" stroke="#000000" stroke-miterlimit="10" width="45" height="45"/>
<rect x="45.5" y="496.5" fill="none" stroke="#000000" stroke-miterlimit="10" width="45" height="45"/>
<rect x="90.5" y="496.5" fill="none" stroke="#000000" stroke-miterlimit="10" width="45" height="45"/>
<rect x="135.5" y="496.5" fill="none" stroke="#000000" stroke-miterlimit="10" width="45" height="45"/>
<rect x="180.5" y="496.5" fill="none" stroke="#000000" stroke-miterlimit="10" width="45" height="45"/>
<rect x="225.5" y="496.5" fill="none" stroke="#000000" stroke-miterlimit="10" width="45" height="45"/>
<rect x="270.5" y="496.5" fill="none" stroke="#000000" stroke-miterlimit="10" width="45" height="45"/>
<rect x="315.5" y="496.5" fill="none" stroke="#000000" stroke-miterlimit="10" width="45" height="45"/>
<rect x="360.5" y="496.5" fill="none" stroke="#000000" stroke-miterlimit="10" width="45" height="45"/>
<rect x="405.5" y="496.5" fill="none" stroke="#000000" stroke-miterlimit="10" width="45" height="45"/>
<rect x="450.5" y="496.5" fill="none" stroke="#000000" stroke-miterlimit="10" width="45" height="45"/>
<rect x="495.5" y="496.5" fill="none" stroke="#000000" stroke-miterlimit="10" width="45" height="45"/>
<rect x="540.5" y="496.5" fill="none" stroke="#000000" stroke-miterlimit="10" width="45" height="45"/>
<rect x="0.5" y="541.5" fill="none" stroke="#000000" stroke-miterlimit="10" width="45" height="45"/>
<rect x="45.5" y="541.5" fill="none" stroke="#000000" stroke-miterlimit="10" width="45" height="45"/>
<rect x="90.5" y="541.5" fill="none" stroke="#000000" stroke-miterlimit="10" width="45" height="45"/>
<rect x="135.5" y="541.5" fill="none" stroke="#000000" stroke-miterlimit="10" width="45" height="45"/>
<rect x="180.5" y="541.5" fill="none" stroke="#000000" stroke-miterlimit="10" width="45" height="45"/>
<rect x="225.5" y="541.5" fill="none" stroke="#000000" stroke-miterlimit="10" width="45" height="45"/>
<rect x="270.5" y="541.5" fill="none" stroke="#000000" stroke-miterlimit="10" width="45" height="45"/>
<rect x="315.5" y="541.5" fill="none" stroke="#000000" stroke-miterlimit="10" width="45" height="45"/>
<rect x="360.5" y="541.5" fill="none" stroke="#000000" stroke-miterlimit="10" width="45" height="45"/>
<rect x="405.5" y="541.5" fill="none" stroke="#000000" stroke-miterlimit="10" width="45" height="45"/>
<rect x="450.5" y="541.5" fill="none" stroke="#000000" stroke-miterlimit="10" width="45" height="45"/>
<rect x="495.5" y="541.5" fill="none" stroke="#000000" stroke-miterlimit="10" width="45" height="45"/>
<rect x="540.5" y="541.5" fill="none" stroke="#000000" stroke-miterlimit="10" width="45" height="45"/>
</svg>
